name D:\school\WTK\thesis\model\3dpredictsim\Results\Batchsim_tmt_linear_v2\Pog_s1_tmt_bCst_d02_k800_ig24_pas.mot
datacolumns 128
datarows 4
range 1.08229621 1.11476510
endheader
time	pelvis_tilt	pelvis_list	pelvis_rotation	pelvis_tx	pelvis_ty	pelvis_tz	hip_flexion_l	hip_adduction_l	hip_rotation_l	hip_flexion_r	hip_adduction_r	hip_rotation_r	knee_angle_l	knee_angle_r	ankle_angle_l	ankle_angle_r	subtalar_angle_l	subtalar_angle_r	tmt_angle_l	tmt_angle_r	mtp_angle_l	mtp_angle_r	lumbar_extension	lumbar_bending	lumbar_rotation	arm_flex_l	arm_add_l	arm_rot_l	arm_flex_r	arm_add_r	arm_rot_r	elbow_flex_l	elbow_flex_r	pro_sup_l	pro_sup_r	glut_med1_l/activation	glut_med2_l/activation	glut_med3_l/activation	glut_min1_l/activation	glut_min2_l/activation	glut_min3_l/activation	semimem_l/activation	semiten_l/activation	bifemlh_l/activation	bifemsh_l/activation	sar_l/activation	add_long_l/activation	add_brev_l/activation	add_mag1_l/activation	add_mag2_l/activation	add_mag3_l/activation	tfl_l/activation	pect_l/activation	grac_l/activation	glut_max1_l/activation	glut_max2_l/activation	glut_max3_l/activation	iliacus_l/activation	psoas_l/activation	quad_fem_l/activation	gem_l/activation	peri_l/activation	rect_fem_l/activation	vas_med_l/activation	vas_int_l/activation	vas_lat_l/activation	med_gas_l/activation	lat_gas_l/activation	soleus_l/activation	tib_post_l/activation	flex_dig_l/activation	flex_hal_l/activation	tib_ant_l/activation	per_brev_l/activation	per_long_l/activation	per_tert_l/activation	ext_dig_l/activation	ext_hal_l/activation	ercspn_l/activation	intobl_l/activation	extobl_l/activation	glut_med1_r/activation	glut_med2_r/activation	glut_med3_r/activation	glut_min1_r/activation	glut_min2_r/activation	glut_min3_r/activation	semimem_r/activation	semiten_r/activation	bifemlh_r/activation	bifemsh_r/activation	sar_r/activation	add_long_r/activation	add_brev_r/activation	add_mag1_r/activation	add_mag2_r/activation	add_mag3_r/activation	tfl_r/activation	pect_r/activation	grac_r/activation	glut_max1_r/activation	glut_max2_r/activation	glut_max3_r/activation	iliacus_r/activation	psoas_r/activation	quad_fem_r/activation	gem_r/activation	peri_r/activation	rect_fem_r/activation	vas_med_r/activation	vas_int_r/activation	vas_lat_r/activation	med_gas_r/activation	lat_gas_r/activation	soleus_r/activation	tib_post_r/activation	flex_dig_r/activation	flex_hal_r/activation	tib_ant_r/activation	per_brev_r/activation	per_long_r/activation	per_tert_r/activation	ext_dig_r/activation	ext_hal_r/activation	ercspn_r/activation	intobl_r/activation	extobl_r/activation	
          1.08229621	         -2.90935951	          0.98340142	          5.03873513	          1.35287027	          0.87153381	         -0.00244217	        -17.96123649	          1.34969908	          6.42188085	         26.13378720	         -0.23703683	         -2.62860260	         -6.64635056	         -7.25465991	        -10.37107927	          5.51850128	          7.53865005	          2.98124723	          1.31412544	          0.04130632	         28.32926167	         -0.09684157	          0.56399523	         -3.06848964	         -1.65167931	          2.26606055	        -13.47942115	          9.54608836	        -10.69036226	        -13.45118748	          8.15406792	         30.13684925	         20.10828571	         86.51662706	         86.51662706	          0.25473716	          0.08223263	          0.06746648	          0.23783655	          0.14250206	          0.08223458	          0.05000322	          0.05000061	          0.05000057	          0.05000068	          0.08280003	          0.12249662	          0.05004382	          0.05001200	          0.05001098	          0.05000272	          0.20882897	          0.09734584	          0.05001402	          0.05001316	          0.05000748	          0.05000678	          0.32791875	          0.61523314	          0.05431997	          0.05001001	          0.05000371	          0.25742840	          0.10470526	          0.15956879	          0.05003895	          0.17040893	          0.24991946	          0.20666090	          0.19659552	          0.18686093	          0.24809992	          0.05000007	          0.08019257	          0.15549956	          0.05000038	          0.05000013	          0.05000042	          0.05000005	          0.05000030	          0.05000028	          0.13450630	          0.05000341	          0.12498752	          0.05000203	          0.05000320	          0.05001673	          0.05901953	          0.05901953	          0.10407874	          0.05000151	          0.05001247	          0.07495056	          0.11464213	          0.07462554	          0.18495049	          0.16053701	          0.05000208	          0.05013531	          0.05696128	          0.05668953	          0.13639322	          0.17014617	          0.05000124	          0.05000084	          0.14298132	          0.05000473	          0.05013210	          0.05000588	          0.11978790	          0.13575985	          0.09447926	          0.05679551	          0.05000709	          0.05901910	          0.05000036	          0.05901881	          0.05901887	          0.53017593	          0.31706767	          0.18231993	          0.37380458	          0.52259296	          0.33063324	          0.05000021	          0.12814112	          0.12726036	
          1.09311917	         -2.88789598	          1.02546195	          5.17449534	          1.37002934	          0.87010538	         -0.00228982	        -17.70079353	          1.20713939	          6.18682487	         25.62564846	         -0.06590424	         -2.39966558	         -8.91591724	         -7.39153510	        -11.08248435	          4.90097295	          8.69720713	          2.50351950	          1.17591417	          0.06357422	         28.96873397	         -0.08508369	          0.79586842	         -2.86884041	         -1.70944239	          1.95799678	        -13.50996574	          9.77871428	        -11.86653666	        -13.45016119	          7.96133713	         31.03873376	         20.09803013	         86.51662706	         86.51662706	          0.21580914	          0.06966615	          0.05715701	          0.20149142	          0.12072545	          0.06966788	          0.05000458	          0.05000044	          0.05000049	          0.05000038	          0.07014736	          0.18364230	          0.20099385	          0.11770884	          0.05002603	          0.05000505	          0.17691653	          0.09713663	          0.05000408	          0.05000958	          0.05000544	          0.05000654	          0.27780724	          0.52570699	          0.05202835	          0.05902122	          0.05901906	          0.21808899	          0.13523093	          0.13523789	          0.13359705	          0.14436755	          0.21172754	          0.17507960	          0.16655252	          0.15830604	          0.21018640	          0.05000006	          0.06793824	          0.13542266	          0.05000040	          0.05000025	          0.05000042	          0.05840116	          0.06966570	          0.05901143	          0.11395183	          0.05197566	          0.18603865	          0.05001546	          0.05000688	          0.05000229	          0.05000042	          0.05000067	          0.08817385	          0.05000023	          0.05000072	          0.06356863	          0.09712614	          0.24970810	          0.25004737	          0.16703964	          0.05000124	          0.05000575	          0.05000131	          0.05902059	          0.16880211	          0.20424653	          0.05000027	          0.05000046	          0.19482774	          0.06967196	          0.10923753	          0.06966541	          0.25521701	          0.27547344	          0.20843229	          0.05000001	          0.05000003	          0.05000000	          0.05000009	          0.05000072	          0.05000040	          0.62433676	          0.31909864	          0.17766132	          0.58110217	          0.57260517	          0.34901707	          0.05000007	          0.10855897	          0.10781281	
          1.10394214	         -2.86019910	          1.04840273	          5.28575750	          1.38737720	          0.86852748	         -0.00214853	        -17.33938115	          1.05731277	          5.94640575	         25.02760175	          0.07452977	         -2.12273657	        -11.37188837	         -8.13345781	        -11.72905619	          4.18780311	          9.82965720	          2.00901223	          0.98137741	         -0.04978148	         29.07595505	         -0.13323912	          1.04002523	         -2.63704048	         -1.75704144	          1.59924907	        -13.54464371	          9.98246259	        -13.02895465	        -13.46133692	          7.84128654	         31.92513819	         20.05731443	         86.51662706	         86.51662706	          0.20877126	          0.05902005	          0.05000072	          0.17070060	          0.10227668	          0.05902157	          0.05000529	          0.05000088	          0.05000144	          0.05000022	          0.05942827	          0.18257458	          0.37873671	          0.11699686	          0.05903325	          0.10438310	          0.14988087	          0.08229809	          0.05000404	          0.05004191	          0.05017516	          0.05901499	          0.23535360	          0.47212893	          0.05761245	          0.05000402	          0.05000035	          0.18476128	          0.11456552	          0.11457141	          0.11318129	          0.12230573	          0.17937200	          0.14832446	          0.14110054	          0.13411453	          0.17806658	          0.05019413	          0.05755837	          0.14300523	          0.05000086	          0.16338457	          0.05000706	          0.05884213	          0.05901963	          0.05901929	          0.27751917	          0.22472694	          0.32214011	          0.05000123	          0.05000130	          0.05000201	          0.07402056	          0.05000136	          0.09212918	          0.05000063	          0.05000597	          0.06966502	          0.08228437	          0.21154880	          0.21183775	          0.17974359	          0.05000151	          0.06965405	          0.05009892	          0.05000172	          0.18162293	          0.18792887	          0.05000441	          0.05000133	          0.16505491	          0.05902545	          0.13621810	          0.05901938	          0.21621561	          0.23337651	          0.17658038	          0.05901937	          0.05901960	          0.05901919	          0.05000135	          0.05901931	          0.05901926	          0.52892748	          0.33600243	          0.17424041	          0.49229998	          0.55836313	          0.29568148	          0.05000007	          0.09196933	          0.09133718	
          1.11476510	         -2.82959072	          1.05623523	          5.36990898	          1.40468879	          0.86680779	         -0.00200783	        -16.86996281	          0.90984765	          5.70245003	         24.32610525	          0.20973625	         -1.82495991	        -13.99818913	         -8.94514760	        -12.20343595	          3.72170043	         10.89178654	          1.47671215	          0.73577080	         -0.01353768	         28.38306698	         -0.16479071	          1.27588168	         -2.37998003	         -1.79441659	          1.22940384	        -13.58514547	         10.17785101	        -14.13032668	        -13.48540783	          7.81614456	         32.77714141	         19.95968415	         86.51662706	         86.51662706	          0.17686772	          0.05000086	          0.05000009	          0.14462216	          0.08664722	          0.05000227	          0.05004227	          0.05000151	          0.05000108	          0.05000159	          0.05901903	          0.19479908	          0.32086198	          0.09911908	          0.05001510	          0.08843254	          0.12697681	          0.06972710	          0.05000345	          0.05000152	          0.05000098	          0.05000098	          0.19938763	          0.41878428	          0.05000016	          0.05000070	          0.05000040	          0.15652661	          0.09705804	          0.09706302	          0.09588533	          0.10361534	          0.15196097	          0.12565797	          0.11953821	          0.11362007	          0.15085551	          0.07992816	          0.08509833	          0.12115179	          0.09707615	          0.21664193	          0.07850255	          0.09108577	          0.05000044	          0.05000023	          0.33454802	          0.35715170	          0.45317779	          0.22160122	          0.19593603	          0.32435877	          0.06271108	          0.08675088	          0.07805065	          0.06966576	          0.05000316	          0.05901933	          0.06971006	          0.17922087	          0.17974511	          0.19164880	          0.05000069	          0.05901210	          0.06983812	          0.23995809	          0.22598327	          0.21482943	          0.05000065	          0.05000053	          0.13983190	          0.05000694	          0.26167249	          0.05000026	          0.18317433	          0.19771279	          0.14959603	          0.05000024	          0.05000047	          0.05000006	          0.05000003	          0.05000045	          0.05000034	          0.67562931	          0.28465569	          0.14761359	          0.69653773	          0.62677293	          0.45169123	          0.05012834	          0.07791487	          0.07737931	
